<svg xmlns="http://www.w3.org/2000/svg" viewBox="0 0 159.92 33.35" style="shape-rendering:geometricPrecision">
  <path fill="#78B833" fill-rule="nonzero" d="M132.74 6.63h-16.28v6.87h13.12v6.35h-13.12v6.92h15.58l6.89-10.5zm.85 26.72h-24.57V0h28.39l6.35 9.88L150.11 0h8.97l-10.4 16.08 11.26 17.27h-9.07l-7.11-10.97-7.06 10.97z"/>
  <path fill="#0B457D" fill-rule="nonzero" d="M96.52 0h7.44v33.35h-7.44l-15.89-20.9v20.9h-7.44V0h6.96l16.37 21.47zM60.69 0h7.44v33.35h-7.44zM56.2 11.07q0 8.01-6.35 10.35l8.44 11.93h-9.16l-7.4-10.64h-5.15v10.64h-7.44V0h12.64q7.77 0 11.09 2.62t3.32 8.45zm-14.17 5.2q3.82 0 5.2-1.24t1.38-3.94-1.43-3.7-5.01-1h-5.58v9.88zM11.78 0q7.68 0 11.19 2.98t3.51 9.16-3.6 9.04-11 2.86H7.44v9.3H0V17.6h12.45q3.72 0 5.06-1.5t1.34-4.39q0-2.88-1.74-4.1t-5.42-1.22H0V0z"/>
</svg>
